<svg fill="currentColor" xmlns="http://www.w3.org/2000/svg"
     viewBox="0 0 1000.000000 1000.000000"
     >
    <g transform="translate(0.000000,1000.000000) scale(0.100000,-0.100000)">
        <path d="M4945 9228 c-26 -46 -61 -105 -78 -133 -17 -27 -48 -81 -70 -120 -21
 -38 -58 -102 -80 -142 -23 -39 -60 -102 -81 -140 -39 -67 -93 -160 -131 -224
 -10 -19 -36 -65 -57 -102 -20 -37 -46 -80 -56 -95 -11 -15 -32 -52 -47 -82
 -15 -29 -35 -65 -45 -80 -10 -14 -35 -56 -56 -94 -22 -38 -58 -101 -81 -140
 -23 -39 -56 -98 -74 -131 -17 -33 -44 -78 -59 -100 -15 -22 -42 -67 -59 -100
 -32 -59 -61 -111 -170 -297 -30 -51 -72 -124 -93 -163 -22 -38 -66 -115 -98
 -170 -33 -55 -72 -122 -86 -150 -14 -27 -32 -57 -39 -65 -7 -8 -25 -40 -41
 -70 -15 -30 -40 -73 -55 -95 -14 -22 -41 -67 -58 -100 -18 -33 -53 -96 -79
 -140 -26 -44 -60 -104 -77 -133 -16 -29 -45 -77 -63 -105 l-32 -52 1906 -3
c1049 -1 1909 0 1912 2 4 4 -27 59 -173 311 -32 55 -90 156 -130 225 -40 69
 -123 213 -185 320 -62 107 -145 251 -185 320 -39 69 -98 170 -130 225 -32 55
 -99 172 -150 260 -94 163 -155 270 -355 615 -62 107 -130 224 -150 260 -20 36
 -63 110 -95 165 -32 55 -115 199 -185 320 -70 121 -136 235 -147 253 l-20 32
 -48 -82z"/>
        <path d="M6897 5926 c-15 -22 -50 -70 -77 -106 -27 -36 -65 -87 -85 -115 -20
 -27 -63 -86 -95 -130 -33 -44 -77 -105 -100 -135 -22 -30 -60 -82 -85 -115
 -25 -33 -67 -91 -95 -130 -27 -38 -70 -97 -95 -130 -45 -61 -82 -111 -180
 -245 -31 -41 -73 -100 -95 -130 -23 -30 -61 -82 -85 -115 -25 -33 -70 -94
 -100 -135 -30 -41 -75 -102 -99 -135 -25 -33 -58 -78 -72 -100 -15 -22 -40
 -56 -55 -75 -16 -19 -44 -57 -64 -83 l-35 -48 28 -37 c16 -20 46 -62 69 -92
22 -30 76 -105 121 -165 45 -61 99 -135 121 -165 40 -54 85 -117 159 -216 20
 -28 63 -86 95 -130 31 -43 77 -106 102 -139 25 -33 63 -85 85 -115 22 -30 65
 -89 95 -130 31 -41 74 -100 96 -130 22 -30 60 -82 85 -115 24 -33 63 -87 86
 -120 23 -33 54 -76 70 -95 98 -123 248 -334 248 -349 0 -8 -570 -11 -1945 -11
l-1945 0 0 1978 0 1977 -22 -35 c-25 -40 -87 -149 -131 -230 -16 -30 -44 -77
 -62 -105 -18 -27 -45 -72 -59 -100 -38 -70 -104 -185 -166 -290 -70 -118 -131
 -226 -170 -300 -18 -33 -38 -67 -45 -75 -7 -8 -34 -53 -60 -100 -67 -119 -114
 -201 -176 -305 -29 -49 -70 -121 -92 -160 -21 -38 -65 -115 -98 -170 -32 -55
 -75 -129 -95 -165 -19 -36 -60 -105 -90 -155 -30 -49 -70 -119 -89 -155 -20
 -36 -45 -81 -57 -100 -21 -34 -91 -156 -171 -295 -22 -38 -63 -110 -92 -160
 -29 -49 -71 -124 -95 -165 -24 -41 -64 -111 -90 -155 -25 -44 -65 -111 -87
 -150 -22 -38 -66 -115 -98 -170 -32 -55 -74 -129 -95 -165 -37 -64 -124 -214
 -185 -320 -69 -118 -114 -197 -140 -245 -15 -27 -31 -55 -36 -61 -5 -6 -27
 -44 -50 -85 -59 -105 -108 -190 -169 -294 -30 -49 -72 -124 -95 -165 -23 -41
 -66 -115 -95 -165 -29 -49 -70 -120 -91 -157 l-37 -68 1519 -2 1519 -3 0 428
0 427 1945 0 1945 0 0 -427 0 -428 1521 3 1521 2 -15 23 c-9 12 -53 87 -98
167 -45 80 -92 161 -104 180 -12 19 -33 55 -47 80 -25 44 -82 143 -190 330
 -140 242 -217 376 -296 515 -47 83 -95 166 -107 185 -21 34 -71 119 -270 465
 -51 88 -127 221 -170 295 -43 74 -100 173 -127 220 -26 47 -53 92 -58 100 -5
8 -49 85 -98 170 -49 85 -113 196 -142 245 -29 50 -70 122 -92 160 -22 39 -49
86 -60 105 -11 19 -38 64 -58 100 -21 36 -62 108 -93 160 -30 52 -95 165 -144
250 -85 148 -150 260 -529 915 -92 160 -184 319 -204 355 -35 61 -151 263
 -154 266 0 1 -14 -17 -29 -40z"/>
    </g>
</svg>